<svg width="630" height="572" viewBox="0 0 630 572" fill="none" xmlns="http://www.w3.org/2000/svg">
    <path
        d="M420.069 111.463C499.906 140.471 541.86 220.678 516.95 289.237C492.039 357.796 408.383 392.362 328.546 363.354C248.708 334.345 206.753 254.14 231.663 185.58C256.574 117.02 340.231 82.4543 420.069 111.463Z"
        fill="#E2FFD0" stroke="#B0DB96" stroke-width="20" />
    <circle cx="323.738" cy="205.651" r="16.6622" transform="rotate(19.9683 323.738 205.651)"
        fill="#C3EFA8" />
    <circle cx="433.258" cy="245.444" r="16.6622" transform="rotate(19.9683 433.258 245.444)"
        fill="#C3EFA8" />
    <path
        d="M315.521 246.908C317.08 242.786 322.736 242.257 325.223 245.896C347.596 278.632 367.974 285.517 406.115 276.343C410.446 275.301 414.326 279.5 412.75 283.666C412.088 285.418 410.552 286.71 408.71 287.05C366.873 294.759 345.466 288.204 316.34 252.071C315.173 250.623 314.863 248.648 315.521 246.908Z"
        fill="#C3EFA8" />
    <path
        d="M194.106 270.759C277.867 256.63 353.915 305.72 366.048 377.649C378.182 449.577 322.447 520.898 238.687 535.028C154.926 549.158 78.8774 500.068 66.7432 428.14C54.6093 356.211 110.345 284.889 194.106 270.759Z"
        fill="#FFF6A7" stroke="#FFE678" stroke-width="20" />
    <circle cx="156.744" cy="400.2" r="16.6622" transform="rotate(-9.57529 156.744 400.2)"
        fill="#FAD359" />
    <circle cx="271.645" cy="380.817" r="16.6622" transform="rotate(-9.57529 271.645 380.817)"
        fill="#F9D65C" />
    <path
        d="M171.775 451.489C172.508 455.835 177.956 457.448 181.099 454.358C209.377 426.563 230.701 423.746 266.35 440.118C270.398 441.977 275.017 438.607 274.276 434.214C273.964 432.367 272.707 430.803 270.965 430.114C231.407 414.464 209.136 416.76 173.577 446.582C172.152 447.777 171.466 449.655 171.775 451.489Z"
        fill="#FDD252" />
</svg>