<svg width="1077" height="1077" viewBox="0 0 1077 1077" fill="none"
    xmlns="http://www.w3.org/2000/svg">
    <rect width="1077" height="1077" rx="100" fill="#A9E6E1" />
    <path
        d="M531.826 221.22C635.529 217.913 715.036 252.094 765.454 307.229C815.894 362.387 839.619 441.116 826.776 531.724C818.524 589.941 803.871 625.089 786.578 648.05C769.546 670.665 748.255 683.741 721.803 694.785C674.733 714.437 605.63 727.598 541.205 784.826C518.246 763.06 491.399 749.033 464.643 738.145C447.528 731.18 429.815 725.26 413.027 719.586C395.962 713.818 379.724 708.265 364.171 701.736C333.281 688.77 306.903 672.67 286.883 646.542C266.898 620.46 251.398 581.939 246.965 520.921C239.969 424.635 271.552 351.819 323.36 302.161C375.666 252.027 450.415 223.816 531.826 221.22Z"
        stroke="white" stroke-width="50" />
    <circle cx="428.5" cy="450.5" r="38.5" fill="white" />
    <circle cx="644.5" cy="452.5" r="38.5" fill="white" />
    <ellipse cx="539" cy="128.5" rx="69" ry="67.5" fill="white" />
    <path
        d="M235.773 759C235.773 759 287.666 760.643 320.273 766.5C353.564 772.479 372.295 777.125 403.773 789.5C434.252 801.482 451.657 808.919 478.273 828C505.209 847.31 539.274 887 539.274 887L539.274 1008C539.274 1008 451.024 953.15 388.273 933.5C357.854 923.974 340.194 920.371 308.773 915C280.483 910.164 235.773 906.5 235.773 906.5L235.773 759Z"
        fill="white" />
    <path
        d="M842.289 758.268C842.289 758.268 790.397 759.911 757.79 765.768C724.499 771.747 705.768 776.393 674.29 788.768C643.811 800.75 626.406 808.187 599.79 827.268C572.854 846.578 538.789 886.268 538.789 886.268L538.789 1007.27C538.789 1007.27 627.038 952.418 689.79 932.768C720.209 923.242 737.869 919.64 769.289 914.268C797.58 909.432 842.289 905.768 842.289 905.768L842.289 758.268Z"
        fill="white" />
    <path
        d="M442.5 560.656C442.5 551.919 452.822 547.15 459.787 552.425C517.991 596.508 556.978 595.032 615.035 552.144C622.146 546.891 632.5 551.784 632.5 560.625V560.625C632.5 564.096 630.761 567.365 627.868 569.283C561.249 613.459 520.401 616.355 447.156 569.209C444.259 567.345 442.5 564.101 442.5 560.656V560.656Z"
        fill="white" />
</svg>