<svg width="1759" height="2035" viewBox="0 0 1759 2035" fill="none"
    xmlns="http://www.w3.org/2000/svg">
    <path
        d="M1588.24 1033.9C1733.68 1547.43 1566.13 1619.14 1092.75 1753.21C619.379 1887.28 443.206 1893.7 297.76 1380.17C152.315 866.633 179.963 335.807 653.336 201.736C1126.71 67.6645 1442.79 520.364 1588.24 1033.9Z"
        fill="#E9E5FE" />
    <circle cx="607.156" cy="840.495" r="86" transform="rotate(-15.8135 607.156 840.495)"
        fill="#C7C3FC" />
    <circle cx="1020.88" cy="723.317" r="86" transform="rotate(-15.8135 1020.88 723.317)"
        fill="#C7C3FC" />
    <path
        d="M742.123 1045.47C742.123 1045.47 809.037 1063.95 860.559 1061.82C899.095 1060.22 932.338 1056.44 963.51 1032.66C994.593 1008.95 1027.88 964.539 1027.88 964.539"
        stroke="#C7C3FC" stroke-width="70" stroke-linecap="round" />
    <path
        d="M1667.15 1566.62C1638.07 1458.45 1599 1243.46 1599 1243.46L403.026 1382.12C403.026 1382.12 418.847 1520.55 373.086 1797.5C362.871 1859.32 390.615 1918.93 444.918 1950.2C503.1 1983.71 617.159 1961.27 674.708 1926.7C767.968 1870.66 791.347 1836.7 898.471 1806.68C1004.5 1776.95 1077.67 1841.79 1180.41 1802.17C1262.97 1770.34 1258.06 1692.07 1360.95 1665.3C1405.91 1653.6 1442.12 1663.72 1487.51 1673.62C1523.17 1681.41 1559.02 1697.88 1586.92 1687.04C1619.58 1674.36 1696.22 1674.79 1667.15 1566.62Z"
        fill="#E9E5FE" stroke="#E9E5FE" stroke-width="70" stroke-linecap="round" />
</svg>