<svg width="2085" height="4360" viewBox="0 0 2085 4360" fill="none"
    xmlns="http://www.w3.org/2000/svg">
    <path
        d="M2066.14 3184.82C2066.14 3833.75 2309.64 4359.82 1038.64 4359.82C-181.858 4359.82 11.1422 3833.75 11.1422 3184.82C11.1422 2535.88 471.169 2009.82 1038.64 2009.82C1606.11 2009.82 2066.14 2535.88 2066.14 3184.82Z"
        fill="#BBDDFF" />
    <path
        d="M1007.8 2880.87C986.282 2898.18 982.877 2929.65 1000.19 2951.17C1017.5 2972.68 1048.98 2976.09 1070.49 2958.77L1007.8 2880.87ZM1661.83 2618.6L1711.61 2613.91L1702.23 2514.35L1652.45 2519.04L1661.83 2618.6ZM1039.14 2919.82L1070.49 2958.77C1078.86 2952.04 1083.17 2944.3 1084.78 2941.25C1086.8 2937.44 1088.18 2933.87 1089.03 2931.54C1090.68 2927 1092.27 2921.59 1093.43 2917.67C1096.08 2908.78 1099.17 2898.42 1104.06 2886.18C1113.69 2862.09 1130.69 2829.82 1163.94 2795.79C1230.23 2727.93 1367.98 2646.27 1661.83 2618.6L1657.14 2568.82L1652.45 2519.04C1344.02 2548.09 1180.62 2635.61 1092.41 2725.91C1048.41 2770.95 1024.82 2815.01 1011.21 2849.06C1004.48 2865.89 1000.29 2880.05 997.573 2889.2C996.057 2894.3 995.444 2896.29 995.077 2897.3C994.917 2897.74 995.336 2896.48 996.393 2894.48C997.05 2893.24 1000.41 2886.81 1007.8 2880.87L1039.14 2919.82Z"
        fill="#F5FAFF" />
    <path
        d="M1040.46 2880.84C1061.99 2898.14 1065.42 2929.61 1048.12 2951.14C1030.83 2972.66 999.354 2976.09 977.827 2958.8L1040.46 2880.84ZM1009.14 2919.82L977.827 2958.8C969.449 2952.07 965.135 2944.33 963.516 2941.28C961.496 2937.46 960.109 2933.9 959.257 2931.56C957.601 2927.03 956.012 2921.61 954.847 2917.69C952.202 2908.8 949.103 2898.44 944.203 2886.2C934.561 2862.12 917.535 2829.86 884.229 2795.82C817.821 2727.94 679.821 2646.27 385.462 2618.6L390.143 2568.82L394.823 2519.04C703.732 2548.08 867.365 2635.59 955.707 2725.88C999.776 2770.92 1023.4 2814.98 1037.04 2849.03C1043.78 2865.86 1047.97 2880.03 1050.7 2889.18C1052.21 2894.28 1052.83 2896.27 1053.19 2897.27C1053.35 2897.71 1052.93 2896.45 1051.87 2894.45C1051.21 2893.2 1047.85 2886.78 1040.46 2880.84L1009.14 2919.82Z"
        fill="#F5FAFF" />
    <path
        d="M1024.14 1097.82C1411.38 1097.82 1717.14 1376.29 1717.14 1710.32C1717.14 2044.35 1411.38 2322.82 1024.14 2322.82C636.907 2322.82 331.143 2044.35 331.143 1710.32C331.143 1376.29 636.907 1097.82 1024.14 1097.82Z"
        fill="#FFF6A7" stroke="#FFE678" stroke-width="80" />
    <circle cx="759.643" cy="1653.32" r="75.5" fill="#FAD359" />
    <circle cx="1287.64" cy="1653.32" r="75.5" fill="#F9D65C" />
    <path
        d="M788.143 1844.83C788.143 1824.85 811.267 1813.54 827.641 1824.98C974.939 1927.86 1072.34 1924.37 1219.28 1824.35C1235.97 1812.99 1259.14 1824.57 1259.14 1844.75C1259.14 1853.24 1254.71 1861.18 1247.44 1865.57C1082.49 1965.31 981.252 1971.84 799.894 1865.39C792.626 1861.13 788.143 1853.25 788.143 1844.83Z"
        fill="#FDD252" />
    <path
        d="M287.822 1213.57C574.387 992.121 1155.45 797.173 1694.55 1213.57C2233.64 1629.97 1694.55 1487.85 1694.55 1487.85C1072.46 1194.96 543.979 1434.13 287.823 1487.85C31.666 1541.58 1.25777 1435.02 287.822 1213.57Z"
        fill="#B3D9FF" />
    <path
        d="M993.643 230.213C1326.05 190.19 1512.76 1024.9 1535.73 1134.1C1537.03 1140.27 1532.28 1145.82 1525.98 1145.82H461.538C455.163 1145.82 450.362 1140.28 451.796 1134.07C475.812 1030.09 662.382 270.097 993.643 230.213Z"
        fill="#B3D9FF" />
    <path
        d="M1508.64 218.818C1726.14 304.317 1109.14 528.22 1162.02 710.836C1214.89 893.451 931.641 245.456 931.641 245.456C931.641 245.456 1291.14 133.319 1508.64 218.818Z"
        fill="#B3D9FF" />
    <path d="M1308.14 485.819L1157.14 378.819" stroke="#9CC7EC" stroke-width="30"
        stroke-linecap="round" />
    <path
        d="M472.643 1105.82C657.57 1056.2 761.766 1017.36 945.025 1003.4C1028.85 1001.04 1068.33 1001.56 1135.05 1003.4C1292.38 1019.41 1375.43 1041.5 1513.64 1105.32"
        stroke="#9CC7EC" stroke-width="30" stroke-linecap="round" />
</svg>