<svg id="visual" viewBox="0 0 900 600" width="900" height="600" xmlns="http://www.w3.org/2000/svg" xmlns:xlink="http://www.w3.org/1999/xlink" version="1.1"><g transform="translate(437.573267667282 256.0569246855789)"><path d="M149.9 -177.8C188.9 -178 211.4 -127 222.8 -76.1C234.3 -25.2 234.6 25.5 209.3 57.1C184 88.6 133.2 101 94 138.2C54.9 175.5 27.4 237.8 -14.7 258C-56.8 278.2 -113.6 256.4 -149.6 218.1C-185.6 179.8 -200.7 125 -204.5 75.4C-208.3 25.9 -200.7 -18.4 -182 -54C-163.4 -89.6 -133.7 -116.4 -101.5 -118.4C-69.4 -120.5 -34.7 -97.7 10.4 -112C55.4 -126.3 110.9 -177.6 149.9 -177.8" fill="#d2c1eb"></path></g></svg>