<svg width="2380" height="2799" viewBox="0 0 2380 2799" fill="none"
    xmlns="http://www.w3.org/2000/svg">
    <path
        d="M2082.07 1981.64C2070.86 2586.28 1693 2498.01 1225.01 2489.34C757.034 2480.66 376.154 2554.87 387.363 1950.22C398.572 1345.57 787.032 862.441 1255.01 871.117C1722.99 879.792 2093.28 1376.99 2082.07 1981.64Z"
        fill="#D7D1FF" />
    <path
        d="M1263.33 449.198C1527.77 454.1 1744.98 688.343 1739.55 981.308C1736.85 1127.07 1673.21 1283.18 1576.24 1401.98C1478.44 1521.8 1356.36 1592.72 1242.53 1590.01C1128.16 1587.28 1008.53 1511.47 915.292 1388.53C822.806 1266.58 765.02 1109 767.721 963.292C773.152 670.328 998.903 444.296 1263.33 449.198Z"
        fill="#F9F8FE" stroke="#D7D1FF" stroke-width="130" />
    <g opacity="0.8" filter="url(#filter0_g_158_28)">
        <path d="M1251.62 1081.09L1340.79 943.219L1167.62 940.008L1251.62 1081.09Z" fill="#E4E9FE" />
    </g>
    <circle cx="1089.25" cy="910.551" r="43.5" transform="rotate(1.06201 1089.25 910.551)"
        fill="#CDCBFC" />
    <circle cx="1419.2" cy="916.667" r="43.5" transform="rotate(1.06201 1419.2 916.667)"
        fill="#CDCBFC" />
    <path
        d="M1091.3 800.07C1152.32 801.201 1200.87 851.582 1199.74 912.599C1198.6 973.616 1148.22 1022.16 1087.21 1021.03C1026.19 1019.9 977.642 969.52 978.773 908.503C979.904 847.486 1030.29 798.939 1091.3 800.07Z"
        stroke="#CDCBFC" stroke-width="40" />
    <path
        d="M1421.25 806.186C1482.26 807.318 1530.81 857.699 1529.68 918.716C1528.55 979.732 1478.17 1028.28 1417.15 1027.15C1356.13 1026.02 1307.59 975.636 1308.72 914.619C1309.85 853.602 1360.23 805.055 1421.25 806.186Z"
        stroke="#CDCBFC" stroke-width="40" />
    <rect x="1213.08" y="894.343" width="95" height="38" transform="rotate(1.06201 1213.08 894.343)"
        fill="#CDCBFC" />
    <path
        d="M959.271 1260.77C1012.13 1188.19 1045.29 1137.48 1119.08 1087.2C1237.36 1006.61 1291.15 1014.37 1385.5 1092.14C1435.54 1133.39 1498.71 1184.84 1531.29 1240.65C1551.01 1274.43 1563.21 1319.91 1569.79 1350.76C1573.63 1368.75 1559.45 1384.85 1541.05 1384.51L950.181 1373.55C931.776 1373.21 918.258 1356.56 923.462 1338.91C930.322 1315.63 941.806 1284.75 959.271 1260.77Z"
        fill="#F9F8FE" />
    <path
        d="M1388.44 1092.13C1388.44 1092.13 1433.16 1127.24 1459.84 1151.96C1478.89 1169.61 1490.87 1178.48 1506.98 1198.84C1535.97 1235.48 1559.5 1306.33 1559.5 1306.33"
        stroke="#E2E6FF" stroke-width="10" stroke-linecap="round" />
    <path
        d="M1126.98 1087.78C1126.98 1087.78 1080.99 1121.21 1053.4 1144.93C1033.72 1161.85 1022.13 1170.91 1004.56 1190.03C972.458 1224.96 936.681 1290.79 936.681 1290.79"
        stroke="#E2E6FF" stroke-width="10" stroke-linecap="round" />
    <path
        d="M1165.1 1212.49C1165.24 1205.02 1173.27 1200.21 1180.06 1203.31C1197.11 1211.08 1225.69 1222.51 1247.55 1223.14C1270.41 1223.8 1300.89 1213.06 1318.78 1205.78C1325.67 1202.97 1333.48 1208.09 1333.34 1215.53L1333.05 1231.15C1332.97 1235.3 1330.35 1238.97 1326.4 1240.26C1311.4 1245.18 1273.64 1256.54 1246.94 1255.83C1221.28 1255.15 1185.52 1242.78 1171.1 1237.4C1167.22 1235.95 1164.73 1232.2 1164.81 1228.06L1165.1 1212.49Z"
        fill="#DCDFF5" />
    <path
        d="M1218.41 206.029C1234.73 183.287 1268.77 183.918 1284.24 207.25L1428.8 425.262L1065.86 418.534L1218.41 206.029Z"
        fill="#D7D1FF" />
    <path
        d="M1077.86 418.757C1077.86 418.757 1128.6 404.45 1161.9 400.941C1201.35 396.784 1223.21 395.356 1262.53 396.179C1288.1 396.714 1302.41 398.068 1327.88 400.449C1358.91 403.351 1407.07 410.584 1407.07 410.584"
        stroke="#CCC4FF" stroke-width="15" stroke-linecap="round" />
    <path
        d="M1804.31 1774.91C1773.24 1703.54 1707.14 1608.12 1707.14 1608.12L1756.91 2475.2L1792.04 2463.87L1850.89 2437.02C1850.89 2437.02 1901.72 1998.7 1804.31 1774.91Z"
        fill="#CBC3FE" stroke="#CBC3FC" stroke-width="15" stroke-linecap="round" />
    <path
        d="M671.799 1754.41C705.489 1684.24 775.082 1591.34 775.082 1591.34L693.211 2455.98L658.529 2443.36L600.706 2414.35C600.706 2414.35 566.161 1974.44 671.799 1754.41Z"
        fill="#CBC3FE" stroke="#CBC3FC" stroke-width="15" stroke-linecap="round" />
    <defs>
        <filter id="filter0_g_158_28" x="1147.62" y="920.008" width="213.176" height="181.081"
            filterUnits="userSpaceOnUse" color-interpolation-filters="sRGB">
            <feFlood flood-opacity="0" result="BackgroundImageFix" />
            <feBlend mode="normal" in="SourceGraphic" in2="BackgroundImageFix" result="shape" />
            <feTurbulence type="fractalNoise" baseFrequency="2 2" numOctaves="3" seed="8745" />
            <feDisplacementMap in="shape" scale="40" xChannelSelector="R" yChannelSelector="G"
                result="displacedImage" width="100%" height="100%" />
            <feMerge result="effect1_texture_158_28">
                <feMergeNode in="displacedImage" />
            </feMerge>
        </filter>
    </defs>
</svg>