<svg width="636" height="947" viewBox="0 0 636 947" fill="none" xmlns="http://www.w3.org/2000/svg">
    <path
        d="M310.826 160.22C414.529 156.913 494.036 191.094 544.454 246.229C594.894 301.387 618.619 380.116 605.776 470.724C597.524 528.941 582.871 564.089 565.578 587.05C548.546 609.665 527.255 622.741 500.803 633.785C453.733 653.437 384.63 666.598 320.205 723.826C297.246 702.06 270.399 688.033 243.643 677.145C226.528 670.18 208.815 664.26 192.027 658.586C174.962 652.818 158.724 647.265 143.171 640.736C112.281 627.77 85.903 611.67 65.8828 585.542C45.8979 559.46 30.398 520.939 25.9648 459.921C18.9693 363.635 50.5517 290.819 102.36 241.161C154.666 191.027 229.415 162.816 310.826 160.22Z"
        stroke="#A9E6E1" stroke-width="50" />
    <circle cx="207.5" cy="389.5" r="38.5" fill="#A9E6E1" />
    <circle cx="423.5" cy="391.5" r="38.5" fill="#A9E6E1" />
    <ellipse cx="318" cy="67.5" rx="69" ry="67.5" fill="#A9E6E1" />
    <path
        d="M14.7735 698C14.7735 698 66.6662 699.643 99.2735 705.5C132.564 711.479 151.295 716.125 182.773 728.5C213.252 740.482 230.657 747.919 257.273 767C284.209 786.31 318.274 826 318.274 826L318.274 947C318.274 947 230.025 892.15 167.273 872.5C136.854 862.974 119.194 859.371 87.7735 854C59.483 849.164 14.7735 845.5 14.7735 845.5L14.7735 698Z"
        fill="#A9E6E1" />
    <path
        d="M621.289 697.268C621.289 697.268 569.397 698.911 536.79 704.768C503.499 710.747 484.768 715.393 453.29 727.768C422.811 739.75 405.406 747.187 378.79 766.268C351.854 785.578 317.789 825.268 317.789 825.268L317.789 946.268C317.789 946.268 406.038 891.418 468.79 871.768C499.209 862.242 516.869 858.64 548.289 853.268C576.58 848.432 621.289 844.768 621.289 844.768L621.289 697.268Z"
        fill="#A9E6E1" />
    <path
        d="M221.5 499.656C221.5 490.919 231.822 486.15 238.787 491.425C296.991 535.508 335.978 534.032 394.035 491.144C401.146 485.891 411.5 490.784 411.5 499.625C411.5 503.096 409.761 506.365 406.868 508.283C340.249 552.459 299.401 555.355 226.156 508.209C223.259 506.345 221.5 503.101 221.5 499.656Z"
        fill="#A9E6E1" />
</svg>